<svg width="51" height="38" viewBox="0 0 51 38" fill="none" xmlns="http://www.w3.org/2000/svg">
<path d="M48.2179 22.4404C47.6812 22.0268 47.0659 21.7267 46.4095 21.5585C45.7532 21.3902 45.0694 21.3573 44.3999 21.4618C48.2528 17.5719 50.2018 13.7047 50.2018 9.91331C50.2018 4.48272 45.834 0.0656222 40.4649 0.0656222C39.0403 0.0566758 37.631 0.359667 36.3359 0.953325C35.0409 1.54698 33.8914 2.41692 32.9684 3.50206C32.0453 2.41692 30.8959 1.54698 29.6008 0.953325C28.3057 0.359667 26.8964 0.0566758 25.4718 0.0656222C20.1028 0.0656222 15.7349 4.48272 15.7349 9.91331C15.7349 12.1701 16.3996 14.3632 17.7988 16.6836C16.6529 16.9739 15.6071 17.5695 14.7727 18.4069L10.132 23.0436H4.24594C3.37535 23.0436 2.54042 23.3894 1.92482 24.005C1.30922 24.6206 0.963379 25.4555 0.963379 26.3261L0.963379 34.5325C0.963379 35.4031 1.30922 36.2381 1.92482 36.8537C2.54042 37.4693 3.37535 37.8151 4.24594 37.8151H25.5826C25.7168 37.8152 25.8505 37.7986 25.9806 37.7659L39.1109 34.4833C39.1945 34.4634 39.2763 34.4359 39.355 34.4012L47.3296 31.0079L47.4198 30.9668C48.1863 30.5839 48.8426 30.0121 49.3269 29.3054C49.8113 28.5987 50.1078 27.7803 50.1884 26.9273C50.2691 26.0743 50.1313 25.2149 49.788 24.4299C49.4447 23.6449 48.9072 22.9602 48.2261 22.4404H48.2179ZM25.4718 3.34819C26.743 3.32958 27.9909 3.69055 29.0558 4.38492C30.1208 5.0793 30.9544 6.07553 31.4502 7.24623C31.5738 7.54726 31.7842 7.80473 32.0545 7.98593C32.3248 8.16713 32.6429 8.26388 32.9684 8.26388C33.2938 8.26388 33.6119 8.16713 33.8822 7.98593C34.1525 7.80473 34.3629 7.54726 34.4865 7.24623C34.9823 6.07553 35.8159 5.0793 36.8809 4.38492C37.9459 3.69055 39.1937 3.32958 40.4649 3.34819C43.9629 3.34819 46.9193 6.35378 46.9193 9.91331C46.9193 13.916 43.6798 18.4439 37.5516 23.023L35.2764 23.5462C35.4761 22.7026 35.4823 21.8247 35.2945 20.9783C35.1066 20.132 34.7297 19.3391 34.1918 18.6591C33.654 17.9792 32.9692 17.4298 32.1888 17.0521C31.4085 16.6745 30.5528 16.4783 29.6858 16.4784H21.6189C19.8484 14.0904 19.0175 11.9895 19.0175 9.91331C19.0175 6.35378 21.9738 3.34819 25.4718 3.34819ZM4.24594 26.3261H9.16979V34.5325H4.24594V26.3261ZM45.9817 28.0105L38.1856 31.33L25.3774 34.5325H12.4523V25.3639L17.0951 20.7232C17.3988 20.4171 17.7604 20.1743 18.1587 20.0092C18.557 19.844 18.9843 19.7596 19.4155 19.761H29.6858C30.3387 19.761 30.9649 20.0204 31.4266 20.4821C31.8883 20.9438 32.1477 21.57 32.1477 22.2229C32.1477 22.8759 31.8883 23.5021 31.4266 23.9638C30.9649 24.4255 30.3387 24.6848 29.6858 24.6848H23.9413C23.506 24.6848 23.0886 24.8578 22.7808 25.1656C22.473 25.4734 22.3 25.8908 22.3 26.3261C22.3 26.7614 22.473 27.1789 22.7808 27.4867C23.0886 27.7945 23.506 27.9674 23.9413 27.9674H30.5064C30.63 27.9671 30.7531 27.9533 30.8737 27.9264L44.6194 24.7649L44.683 24.7484C45.1026 24.632 45.5505 24.6748 45.9404 24.8686C46.3304 25.0625 46.6349 25.3937 46.7953 25.7986C46.9557 26.2035 46.9607 26.6533 46.8094 27.0617C46.658 27.47 46.361 27.808 45.9755 28.0105H45.9817Z" fill="black"/>
</svg>
