<svg width="54" height="41" viewBox="0 0 54 41" fill="none" xmlns="http://www.w3.org/2000/svg">
<path d="M0.463867 6.10352e-05C3.5909 6.04447 3.68681 11.6896 7.1038 23.1963C11.2412 35.109 26.5151 35.9119 27.6459 35.9342C28.6719 37.5535 31.0205 39.7348 36.4025 40.8634L37.0002 38.0263C32.3565 37.0539 30.6569 35.2629 30.0726 34.2792L30.0614 34.2926C30.2555 33.2131 33.4583 22.2997 27.1106 13.4338C16.4827 1.65726 0.463867 6.10352e-05 0.463867 6.10352e-05ZM53.9937 1.87361C45.2996 3.23639 44.4186 -0.178372 28.4042 8.77227C31.014 11.8212 32.897 15.4232 33.9113 19.3063C34.9255 23.1894 35.0444 27.2521 34.2591 31.1879C42.5629 27.8735 45.7814 22.3198 46.7627 16.7661C46.7627 16.7661 49.5954 6.24744 53.9937 1.87361ZM28.4042 8.77227L28.3998 8.76781V8.77673L28.4042 8.77227ZM6.35884 5.30844C6.35884 5.30844 18.4521 8.48901 25.4132 31.0541C18.8447 29.0712 16.0388 22.5874 15.0864 19.5273H15.0998C13.3614 14.1581 10.3658 9.28275 6.35884 5.30844Z" fill="black"/>
</svg>
