<svg width="35" height="32" viewBox="0 0 35 32" fill="none" xmlns="http://www.w3.org/2000/svg">
<rect x="0.18457" y="0.682739" width="33.9466" height="31.164" rx="15.582" fill="white"/>
<path d="M27.0397 24.9465C25.4958 22.2785 23.0719 20.4064 20.2555 19.6125C21.6248 18.9164 22.7198 17.7795 23.3638 16.385C24.0079 14.9906 24.1635 13.4198 23.8057 11.926C23.4478 10.4323 22.5973 9.10254 21.3912 8.15131C20.1852 7.20007 18.6939 6.68274 17.1579 6.68274C15.6218 6.68274 14.1305 7.20007 12.9245 8.15131C11.7184 9.10254 10.8679 10.4323 10.51 11.926C10.1522 13.4198 10.3078 14.9906 10.9519 16.385C11.596 17.7795 12.6909 18.9164 14.0602 19.6125C11.2438 20.4055 8.81997 22.2775 7.27603 24.9465C7.23363 25.0132 7.20516 25.0877 7.19234 25.1657C7.17951 25.2437 7.18259 25.3235 7.20139 25.4002C7.2202 25.477 7.25433 25.5491 7.30174 25.6124C7.34915 25.6756 7.40886 25.7286 7.47728 25.7681C7.5457 25.8077 7.62141 25.833 7.69985 25.8425C7.7783 25.852 7.85787 25.8456 7.93376 25.8236C8.00966 25.8015 8.08031 25.7644 8.14148 25.7144C8.20265 25.6643 8.25307 25.6024 8.2897 25.5324C10.1657 22.2912 13.4801 20.3566 17.1579 20.3566C20.8356 20.3566 24.15 22.2912 26.026 25.5324C26.0627 25.6024 26.1131 25.6643 26.1742 25.7144C26.2354 25.7644 26.3061 25.8015 26.382 25.8236C26.4579 25.8456 26.5374 25.852 26.6159 25.8425C26.6943 25.833 26.77 25.8077 26.8384 25.7681C26.9069 25.7286 26.9666 25.6756 27.014 25.6124C27.0614 25.5491 27.0955 25.477 27.1143 25.4002C27.1331 25.3235 27.1362 25.2437 27.1234 25.1657C27.1106 25.0877 27.0821 25.0132 27.0397 24.9465ZM11.4938 13.5207C11.4938 12.4004 11.826 11.3054 12.4484 10.3739C13.0707 9.44246 13.9553 8.71648 14.9903 8.28778C16.0253 7.85908 17.1641 7.74692 18.2629 7.96546C19.3616 8.18401 20.3708 8.72346 21.163 9.5156C21.9551 10.3077 22.4945 11.317 22.7131 12.4157C22.9316 13.5144 22.8195 14.6533 22.3908 15.6882C21.9621 16.7232 21.2361 17.6078 20.3046 18.2302C19.3732 18.8526 18.2781 19.1848 17.1579 19.1848C15.6562 19.1829 14.2166 18.5856 13.1548 17.5238C12.0929 16.462 11.4956 15.0223 11.4938 13.5207Z" fill="black"/>
</svg>
