<svg width="36" height="46" viewBox="0 0 36 46" fill="none" xmlns="http://www.w3.org/2000/svg">
<path d="M35.8007 0.440552C29.2112 2.00991 20.6648 7.76267 21.0713 15.219L21.0146 15.2474C19.8518 12.0803 18.2162 10.6717 15.1342 9.27247C11.069 7.50836 6.65401 9.27247 0.290527 5.7414C4.52686 11.0404 4.52686 18.112 10.7098 19.8798C14.9168 21.279 19.3413 20.4565 21.0808 19.1708C23.0945 26.0533 22.8014 32.8696 19.7005 39.7332C19.5776 36.4243 18.6417 32.378 17.3465 29.504C16.8171 33.0398 17.1668 38.334 13.6311 41.8698C13.8107 40.1019 12.3926 36.5756 10.9839 34.8077C10.9839 38.334 11.3337 41.8698 9.03642 45.4056H31.83C32.3216 43.7512 32.5107 42.0967 32.6809 41.8887C31.9718 42.3331 31.2911 42.9381 30.0243 43.1745C30.3741 43.1745 30.2417 40.1019 30.0621 38.334C28.6535 41.8698 26.5358 43.6377 24.2384 43.6377C26.7059 40.1019 26.3561 38.334 26.0063 34.8077C24.7773 37.8708 23.6807 39.6103 20.9768 41.1702C24.541 33.7205 24.938 26.1951 22.8014 18.7454C25.1744 19.8231 27.8499 19.4261 30.8562 16.3441C34.3542 12.761 31.7449 5.7414 35.8007 0.440552ZM32.6809 41.8887C32.6998 41.8887 32.7092 41.8793 32.7187 41.8698C32.7092 41.8698 32.6998 41.8793 32.6809 41.8887Z" fill="black"/>
</svg>
