<svg width="99" height="99" viewBox="0 0 99 99" fill="none" xmlns="http://www.w3.org/2000/svg">
<circle cx="49.5" cy="49.5" r="49.5" fill="#FED5BD"/>
<path d="M36.68 64.296C36.04 64.36 35.24 64.392 34.28 64.392C33.384 64.328 32.808 63.688 32.552 62.472C32.488 62.024 32.552 61.608 32.744 61.224C32.936 60.84 33.192 60.424 33.512 59.976C34.28 58.696 35.144 57.32 36.104 55.848C37.128 54.312 37.8 53.064 38.12 52.104C38.12 51.848 38.152 51.624 38.216 51.432C37.128 51.624 36.008 51.24 34.856 50.28C33.64 49.128 33.32 47.592 33.896 45.672C34.472 43.752 35.592 42.216 37.256 41.064C38.408 40.36 39.496 39.976 40.52 39.912C41.544 39.848 42.632 40.072 43.784 40.584C44.872 41.224 45.768 42.216 46.472 43.56C47.176 44.84 47.368 45.896 47.048 46.728C46.856 48.2 46.504 49.576 45.992 50.856C45.544 52.136 45.128 53.384 44.744 54.6C44.36 56.008 43.56 57.512 42.344 59.112C41.192 60.648 40.072 62.056 38.984 63.336C39.048 63.592 38.856 63.752 38.408 63.816C37.96 63.88 37.384 64.04 36.68 64.296ZM53.768 64.296C53.128 64.36 52.328 64.392 51.368 64.392C50.472 64.328 49.928 63.688 49.736 62.472C49.672 62.024 49.736 61.608 49.928 61.224C50.12 60.84 50.376 60.424 50.696 59.976C51.464 58.696 52.328 57.32 53.288 55.848C54.312 54.312 54.984 53.064 55.304 52.104C55.304 51.848 55.336 51.624 55.4 51.432C54.312 51.624 53.192 51.24 52.04 50.28C50.824 49.128 50.472 47.592 50.984 45.672C51.56 43.752 52.68 42.216 54.344 41.064C55.496 40.36 56.584 39.976 57.608 39.912C58.632 39.848 59.72 40.072 60.872 40.584C61.96 41.224 62.856 42.216 63.56 43.56C64.264 44.84 64.456 45.896 64.136 46.728C63.944 48.2 63.592 49.576 63.08 50.856C62.632 52.136 62.216 53.384 61.832 54.6C61.448 56.008 60.648 57.512 59.432 59.112C58.28 60.648 57.16 62.056 56.072 63.336C56.136 63.592 55.944 63.752 55.496 63.816C55.048 63.88 54.472 64.04 53.768 64.296Z" fill="#333232"/>
</svg>
