<svg width="27" height="27" viewBox="0 0 27 27" fill="none" xmlns="http://www.w3.org/2000/svg">
<path d="M13.3176 13.9643C13.3176 13.7481 13.4035 13.5409 13.5563 13.3881C13.7091 13.2353 13.9164 13.1494 14.1325 13.1494C14.3486 13.1494 14.5559 13.0635 14.7087 12.9107C14.8615 12.7579 14.9474 12.5507 14.9474 12.3345C14.9474 12.1184 14.8615 11.9112 14.7087 11.7584C14.5559 11.6055 14.3486 11.5197 14.1325 11.5197C13.4842 11.5197 12.8624 11.7772 12.4039 12.2357C11.9455 12.6941 11.6879 13.3159 11.6879 13.9643C11.6879 14.1804 11.7738 14.3876 11.9266 14.5405C12.0794 14.6933 12.2867 14.7791 12.5028 14.7791C12.7189 14.7791 12.9262 14.6933 13.079 14.5405C13.2318 14.3876 13.3176 14.1804 13.3176 13.9643ZM8.42849 14.2359C8.42849 12.651 9.05806 11.1311 10.1787 10.0105C11.2994 8.88982 12.8193 8.26025 14.4041 8.26025C15.989 8.26025 17.5089 8.88982 18.6295 10.0105C19.7502 11.1311 20.3798 12.651 20.3798 14.2359C20.3798 15.8207 19.7502 17.3406 18.6295 18.4613C17.5089 19.5819 15.989 20.2115 14.4041 20.2115C12.8193 20.2115 11.2994 19.5819 10.1787 18.4613C9.05806 17.3406 8.42849 15.8207 8.42849 14.2359ZM14.4041 9.88996C13.2515 9.88996 12.1461 10.3478 11.3311 11.1629C10.5161 11.9779 10.0582 13.0833 10.0582 14.2359C10.0582 15.3885 10.5161 16.4939 11.3311 17.3089C12.1461 18.1239 13.2515 18.5818 14.4041 18.5818C15.5567 18.5818 16.6621 18.1239 17.4772 17.3089C18.2922 16.4939 18.75 15.3885 18.75 14.2359C18.75 13.0833 18.2922 11.9779 17.4772 11.1629C16.6621 10.3478 15.5567 9.88996 14.4041 9.88996ZM7.5756 7.71049C9.17599 4.81067 12.104 2.82785 15.4906 2.82785C20.6622 2.82785 24.7257 7.41388 24.7257 12.9049C24.725 13.5206 24.6757 14.1218 24.5779 14.7085C24.516 15.0822 24.529 15.4799 24.604 15.8852C24.6837 16.3205 24.7242 16.7667 24.7257 17.2237C24.7259 18.4697 24.4087 19.6953 23.804 20.7847C23.1992 21.8742 22.3268 22.7915 21.2691 23.4503C20.2115 24.109 19.0034 24.4875 17.7589 24.5498C16.5145 24.6122 15.2746 24.3564 14.1564 23.8067C13.2895 23.3914 12.3176 23.2472 11.3674 23.3927C11.0242 23.4464 10.6772 23.4726 10.3298 23.471C6.21968 23.471 2.99609 19.8812 2.99609 15.594C2.99609 12.8006 4.35202 10.3246 6.42937 8.923C6.91394 8.59379 7.31376 8.18311 7.5756 7.71049ZM15.4906 4.45757C12.7733 4.45757 10.3548 6.04817 9.00215 8.49818C8.59472 9.23482 8.00042 9.82695 7.33984 10.2724C5.72642 11.3643 4.62581 13.3276 4.62581 15.594C4.62581 19.1066 7.23988 21.8412 10.3298 21.8412C10.5993 21.8412 10.8637 21.8213 11.123 21.7815C12.402 21.586 13.7102 21.7822 14.8757 22.3443C15.8253 22.8113 16.8861 23.0049 17.9395 22.9035C18.9928 22.8021 19.9972 22.4097 20.8403 21.7701C21.6834 21.1305 22.332 20.269 22.7134 19.2819C23.0949 18.2948 23.1942 17.221 23.0003 16.1807C22.8887 15.6075 22.8784 15.0191 22.9699 14.4423C23.0532 13.944 23.0952 13.4315 23.096 12.9049C23.096 8.16464 19.6192 4.45757 15.4906 4.45757Z" fill="black"/>
</svg>
