<svg width="23" height="23" viewBox="0 0 23 23" fill="none" xmlns="http://www.w3.org/2000/svg">
<path d="M7.60643 15.9936C8.35502 15.9936 8.96188 15.3867 8.96188 14.6381C8.96188 13.8895 8.35502 13.2827 7.60643 13.2827C6.85783 13.2827 6.25098 13.8895 6.25098 14.6381C6.25098 15.3867 6.85783 15.9936 7.60643 15.9936Z" fill="black"/>
<path d="M16.4175 15.3158C17.1661 15.3158 17.7729 14.709 17.7729 13.9604C17.7729 13.2118 17.1661 12.6049 16.4175 12.6049C15.6689 12.6049 15.062 13.2118 15.062 13.9604C15.062 14.709 15.6689 15.3158 16.4175 15.3158Z" fill="black"/>
<path d="M9.63963 8.5386C10.3882 8.5386 10.9951 7.93175 10.9951 7.18315C10.9951 6.43455 10.3882 5.8277 9.63963 5.8277C8.89104 5.8277 8.28418 6.43455 8.28418 7.18315C8.28418 7.93175 8.89104 8.5386 9.63963 8.5386Z" fill="black"/>
<path d="M10.3179 11.2495C10.6922 11.2495 10.9956 10.9461 10.9956 10.5718C10.9956 10.1975 10.6922 9.89404 10.3179 9.89404C9.94357 9.89404 9.64014 10.1975 9.64014 10.5718C9.64014 10.9461 9.94357 11.2495 10.3179 11.2495Z" fill="black"/>
<path d="M16.4175 5.14993C17.1661 5.14993 17.7729 4.54307 17.7729 3.79448C17.7729 3.04588 17.1661 2.43903 16.4175 2.43903C15.6689 2.43903 15.062 3.04588 15.062 3.79448C15.062 4.54307 15.6689 5.14993 16.4175 5.14993Z" fill="black"/>
<path d="M20.4839 3.11674C20.8582 3.11674 21.1616 2.81332 21.1616 2.43902C21.1616 2.06472 20.8582 1.76129 20.4839 1.76129C20.1096 1.76129 19.8062 2.06472 19.8062 2.43902C19.8062 2.81332 20.1096 3.11674 20.4839 3.11674Z" fill="black"/>
<path d="M11.6728 16.6713C12.0471 16.6713 12.3506 16.3679 12.3506 15.9936C12.3506 15.6193 12.0471 15.3158 11.6728 15.3158C11.2985 15.3158 10.9951 15.6193 10.9951 15.9936C10.9951 16.3679 11.2985 16.6713 11.6728 16.6713Z" fill="black"/>
<path d="M11.6732 20.7376C6.45473 20.7376 2.18506 16.4679 2.18506 11.2495C2.18506 6.03097 6.45473 1.76129 11.6732 1.76129H11.8765L12.8254 1.82906L12.622 2.64234C12.5543 2.91343 12.4865 3.25229 12.4865 3.52338C12.4865 5.42101 13.9775 6.91201 15.8751 6.91201C16.5529 6.91201 17.2306 6.70869 17.8405 6.30206L18.7216 7.31865C18.4505 7.58974 18.3149 7.9286 18.3149 8.26746C18.3149 9.14851 19.196 9.894 20.1448 9.55514L20.9581 9.21628L21.0936 10.0973C21.1614 10.504 21.1614 10.9106 21.1614 11.2495C21.1614 16.4679 16.8917 20.7376 11.6732 20.7376ZM11.1988 3.11674C6.92914 3.38783 3.54051 6.91201 3.54051 11.2495C3.54051 15.7225 7.20023 19.3822 11.6732 19.3822C16.1462 19.3822 19.8059 15.7225 19.8059 11.2495V10.9784C18.2472 11.0461 16.9595 9.82623 16.9595 8.26746V8.13192C16.6206 8.19969 16.2818 8.26746 15.8751 8.26746C13.232 8.26746 11.131 6.16651 11.131 3.52338C11.131 3.38783 11.131 3.25229 11.1988 3.11674Z" fill="black"/>
</svg>
